<?xml version="1.0" standalone="no"?>
<!DOCTYPE svg PUBLIC "-//W3C//DTD SVG 20010904//EN"
 "http://www.w3.org/TR/2001/REC-SVG-20010904/DTD/svg10.dtd">
<svg version="1.0" xmlns="http://www.w3.org/2000/svg"
 width="896.000000pt" height="896.000000pt" viewBox="0 0 896.000000 896.000000"
 preserveAspectRatio="xMidYMid meet">
<metadata>
Created by potrace 1.14, written by Peter Selinger 2001-2017
</metadata>
<g transform="translate(0.000000,896.000000) scale(0.100000,-0.100000)"
fill="#000000" stroke="none">
<path d="M4495 8925 c-5 -17 -9 -32 -10 -35 -1 -4 -89 -282 -101 -320 -3 -8
-5 -16 -5 -17 1 -2 -8 -27 -18 -55 -11 -29 -28 -82 -39 -118 -11 -36 -44 -139
-73 -230 -29 -91 -53 -167 -54 -170 -2 -9 -86 -275 -92 -290 -3 -8 -8 -23 -9
-32 -4 -17 -39 -127 -51 -158 -4 -8 -7 -17 -8 -20 -6 -20 -29 -96 -30 -100 -8
-35 -20 -50 -38 -51 -32 -1 -68 -6 -100 -12 -15 -3 -53 -11 -85 -17 -31 -5
-68 -13 -82 -16 -14 -3 -36 -7 -49 -10 -14 -3 -28 -7 -31 -9 -4 -2 -20 -7 -36
-9 -45 -9 -229 -63 -250 -74 -10 -5 -23 -10 -29 -11 -15 -2 -78 -21 -100 -32
-11 -5 -49 -20 -85 -33 -123 -46 -407 -183 -442 -214 -10 -8 -18 -12 -18 -9 0
3 -48 -25 -107 -64 -60 -38 -116 -72 -125 -76 -10 -3 -18 -9 -18 -14 0 -5 -6
-9 -14 -9 -8 0 -16 -7 -20 -15 -3 -8 -10 -15 -16 -15 -8 0 -125 -83 -140 -100
-3 -3 -25 -21 -50 -40 -25 -19 -52 -41 -61 -49 -10 -9 -50 -45 -90 -81 -111
-99 -252 -244 -360 -370 -75 -87 -289 -381 -289 -396 0 -3 -13 -24 -28 -47
-16 -23 -32 -49 -35 -57 -4 -8 -17 -30 -28 -49 -71 -119 -197 -388 -246 -526
-13 -38 -27 -77 -30 -85 -4 -8 -7 -17 -8 -20 -1 -3 -5 -12 -8 -20 -5 -13 -38
-121 -43 -142 -1 -5 -2 -9 -3 -10 -2 -2 -4 -14 -7 -28 -2 -14 -8 -36 -13 -50
-11 -28 -47 -185 -55 -240 -3 -19 -8 -46 -11 -60 -7 -32 -15 -84 -21 -135 -2
-22 -7 -56 -10 -75 -13 -90 -19 -235 -18 -455 1 -224 4 -273 19 -399 4 -26 8
-62 10 -80 2 -17 6 -42 9 -56 2 -14 10 -59 16 -100 30 -189 144 -579 201 -692
5 -10 9 -22 9 -28 0 -5 14 -40 31 -77 56 -122 78 -173 76 -177 -1 -2 5 -12 14
-22 8 -11 26 -41 39 -69 14 -27 27 -52 30 -55 3 -3 14 -23 25 -45 11 -22 23
-44 28 -50 4 -5 22 -32 39 -60 153 -244 319 -454 517 -653 102 -102 150 -147
261 -242 14 -12 68 -54 120 -93 52 -40 97 -75 98 -79 2 -5 10 -8 18 -8 8 0 14
-4 14 -8 0 -5 19 -19 43 -32 23 -13 47 -28 52 -32 24 -20 135 -88 144 -88 5 0
11 -3 13 -7 5 -13 338 -185 338 -176 0 3 6 1 13 -5 6 -6 59 -29 117 -51 58
-23 113 -46 122 -51 10 -6 27 -10 37 -10 11 0 23 -4 26 -10 3 -5 16 -10 29
-10 12 0 26 -3 30 -7 4 -5 12 -9 17 -9 5 -1 11 -3 14 -4 3 -1 8 -3 13 -4 4 -1
34 -10 67 -20 33 -10 68 -20 78 -22 44 -10 56 -13 112 -27 33 -9 71 -18 85
-20 36 -7 139 -25 178 -31 84 -15 80 -14 257 -33 84 -9 544 -9 640 0 99 9 162
17 195 22 14 3 43 7 65 11 54 7 76 11 105 18 14 3 36 8 50 10 65 12 210 46
230 53 17 7 27 10 55 17 11 3 35 9 53 15 18 5 33 10 35 10 1 0 9 2 17 5 8 3
60 21 115 41 55 20 114 42 132 50 17 8 38 15 47 15 9 0 16 4 16 8 0 5 6 9 13
9 17 0 377 180 398 199 8 8 19 11 22 7 4 -3 7 -2 7 4 0 5 10 14 23 20 31 14
256 163 283 188 6 5 22 17 34 25 12 8 28 20 34 25 6 6 31 26 56 45 25 18 52
41 61 49 9 9 42 39 75 66 180 154 435 437 562 625 20 30 45 63 55 74 9 11 17
26 17 33 0 7 4 13 9 13 5 0 14 13 21 29 6 16 20 37 31 47 10 9 19 25 19 35 0
9 4 19 8 21 17 7 176 311 222 423 4 11 17 40 28 65 34 77 141 405 157 480 2 8
13 56 25 105 12 50 23 99 25 110 1 11 8 52 15 90 6 39 13 88 15 110 3 22 7 56
10 75 14 93 19 196 18 435 -1 143 -3 280 -6 305 -14 142 -19 185 -22 190 -2 3
-6 30 -10 60 -10 81 -12 96 -19 117 -3 10 -8 38 -11 63 -4 24 -9 48 -11 52 -2
3 -8 26 -14 50 -5 24 -14 63 -20 88 -7 25 -13 52 -15 60 -2 8 -21 67 -41 130
-21 63 -38 117 -39 120 -3 8 -17 43 -36 89 -11 24 -19 47 -19 51 0 5 -15 41
-34 82 -19 40 -35 76 -36 80 -2 9 -98 197 -129 253 -198 351 -492 715 -767
951 -32 27 -62 54 -68 60 -16 15 -210 166 -236 184 -12 8 -32 22 -44 31 -115
88 -424 261 -611 344 -209 92 -514 191 -710 231 -35 7 -69 14 -100 19 -16 3
-54 10 -84 15 -30 6 -55 11 -56 12 -2 2 -24 71 -50 153 -26 83 -54 170 -62
195 -8 25 -16 50 -17 55 -1 6 -28 91 -60 190 -31 99 -78 245 -103 325 -25 80
-49 154 -54 165 -12 31 -110 346 -114 366 -2 10 -8 27 -14 38 -6 11 -11 28
-12 38 0 10 -8 36 -18 58 l-18 40 -8 -30z m-539 -1697 c-4 -13 -9 -30 -11 -38
-2 -8 -19 -62 -38 -120 -19 -58 -51 -159 -72 -225 -20 -66 -41 -132 -47 -147
-6 -15 -9 -28 -8 -30 1 -2 -5 -21 -13 -43 -9 -22 -41 -121 -72 -220 -31 -99
-60 -191 -65 -205 -11 -33 -135 -421 -200 -630 -29 -91 -62 -196 -75 -235 -26
-78 -98 -306 -101 -317 -1 -5 -2 -9 -4 -10 -1 -2 -3 -10 -5 -18 -2 -8 -24 -80
-50 -160 -25 -80 -53 -167 -61 -195 -9 -27 -19 -59 -24 -70 -4 -11 -25 -74
-45 -140 -20 -66 -42 -138 -50 -160 -11 -31 -61 -193 -70 -225 -1 -3 -4 -12
-8 -20 -3 -8 -29 -89 -57 -180 -28 -91 -53 -171 -55 -178 -3 -7 -5 -14 -5 -17
-1 -3 -7 -20 -16 -40 -8 -19 -14 -38 -14 -42 0 -8 -90 -297 -115 -368 -7 -22
-28 -87 -45 -145 -17 -58 -35 -114 -40 -125 -8 -18 -22 -61 -25 -75 -1 -3 -13
-43 -27 -90 -14 -47 -29 -102 -33 -123 -3 -21 -9 -46 -12 -55 -4 -12 3 -9 23
9 16 14 90 73 164 130 74 57 140 108 146 114 6 5 26 21 44 35 18 14 42 33 53
43 11 9 23 17 26 17 3 0 17 10 31 23 14 12 57 47 95 77 39 30 72 58 73 62 2 5
8 8 14 8 5 0 15 6 22 13 31 29 76 67 81 67 3 0 32 21 64 48 31 26 72 58 91 72
18 14 79 61 134 105 243 191 651 511 696 545 18 14 38 30 44 35 6 6 27 22 46
35 19 13 37 27 40 31 9 13 123 99 131 99 4 0 34 -21 67 -47 32 -27 72 -57 87
-68 24 -18 44 -33 105 -82 8 -7 69 -54 135 -105 66 -50 122 -95 125 -98 3 -3
21 -17 40 -30 19 -13 37 -27 40 -30 3 -3 34 -28 70 -55 36 -28 70 -54 76 -60
15 -13 52 -42 129 -101 33 -25 74 -56 90 -69 17 -13 64 -50 105 -81 41 -32 77
-61 80 -64 3 -3 32 -25 65 -50 33 -25 62 -47 65 -50 3 -3 23 -18 45 -34 22
-17 49 -38 60 -47 21 -19 150 -119 291 -226 45 -34 88 -68 95 -75 8 -7 32 -26
54 -42 22 -17 42 -33 45 -36 3 -3 21 -17 40 -30 19 -13 49 -37 65 -52 51 -47
55 -39 24 48 -11 32 -22 66 -24 74 -2 8 -10 35 -18 60 -8 25 -43 133 -77 240
-34 107 -65 206 -70 220 -8 22 -92 287 -95 300 -1 3 -4 12 -7 20 -13 34 -33
105 -31 110 1 3 -2 10 -6 15 -7 8 -18 42 -25 75 -4 15 -109 340 -119 365 -6
17 -12 35 -13 41 -1 6 -24 78 -50 160 -27 82 -49 151 -49 154 0 3 -6 21 -12
40 -6 19 -41 130 -78 245 -37 116 -79 248 -94 295 -15 47 -47 146 -70 220 -51
162 -48 153 -50 163 0 4 -7 23 -15 42 -9 20 -15 38 -15 40 0 3 -23 79 -52 168
-29 89 -54 167 -55 172 -2 11 -55 178 -84 265 -10 30 -37 116 -60 190 -23 74
-44 142 -48 150 -3 8 -6 17 -7 20 -5 22 -39 129 -45 145 -5 11 -23 67 -40 125
-18 58 -36 114 -40 125 -15 36 -100 312 -100 325 0 11 9 11 110 -7 22 -4 72
-14 135 -29 11 -3 29 -7 40 -9 11 -3 61 -16 110 -30 50 -14 97 -28 105 -30 8
-2 16 -4 18 -5 1 -2 5 -3 10 -5 4 -1 14 -4 22 -8 14 -5 88 -29 100 -32 3 -1
14 -5 25 -10 11 -4 54 -21 95 -37 132 -52 304 -136 480 -236 64 -37 241 -155
327 -218 130 -96 265 -215 398 -349 146 -147 171 -175 288 -320 89 -111 237
-335 320 -485 34 -60 91 -172 92 -180 1 -3 15 -33 32 -67 17 -35 29 -63 26
-63 -3 0 -1 -6 5 -12 17 -22 127 -317 137 -370 2 -10 6 -22 9 -26 3 -5 7 -19
10 -33 3 -13 7 -33 10 -44 34 -126 69 -290 81 -375 3 -25 8 -56 10 -70 8 -43
17 -133 19 -180 1 -25 5 -50 8 -55 7 -12 2 -506 -6 -583 -9 -100 -17 -157 -33
-252 -9 -52 -17 -102 -18 -110 -1 -8 -4 -24 -8 -35 -3 -11 -8 -37 -12 -59 -3
-21 -7 -41 -10 -45 -2 -4 -6 -18 -8 -32 -3 -13 -11 -44 -18 -69 -7 -25 -13
-51 -15 -57 -1 -7 -12 -43 -24 -80 -12 -38 -23 -72 -25 -78 -2 -10 -11 -34
-25 -70 -4 -11 -25 -64 -46 -119 -22 -54 -43 -111 -49 -127 -5 -16 -13 -29
-17 -29 -4 0 -8 -5 -8 -12 0 -16 -102 -222 -112 -226 -5 -2 -8 -8 -8 -14 0
-22 -220 -367 -264 -414 -6 -7 -20 -24 -31 -40 -105 -148 -517 -574 -556 -574
-5 0 -9 -4 -9 -8 0 -22 -456 -342 -487 -342 -7 0 -13 -3 -13 -7 0 -5 -10 -13
-23 -19 -12 -6 -76 -39 -142 -72 -100 -51 -204 -100 -225 -107 -6 -2 -36 -14
-95 -40 -22 -9 -47 -18 -55 -20 -8 -2 -32 -11 -52 -19 -21 -9 -38 -13 -38 -10
0 4 -6 2 -12 -3 -7 -6 -40 -18 -73 -28 -33 -9 -71 -21 -85 -26 -28 -10 -234
-60 -265 -65 -11 -1 -42 -7 -70 -13 -27 -5 -70 -12 -95 -16 -25 -3 -72 -10
-105 -15 -64 -10 -167 -19 -277 -25 -37 -1 -71 -6 -77 -10 -6 -3 -11 -3 -11 2
0 4 -35 7 -77 5 -43 -1 -82 -3 -88 -3 -54 -2 -322 21 -435 37 -14 2 -45 6 -70
9 -25 3 -51 8 -59 11 -8 2 -30 7 -50 10 -72 11 -246 52 -301 72 -8 3 -24 7
-35 9 -31 7 -38 9 -65 20 -14 6 -40 14 -57 17 -18 4 -35 12 -38 17 -4 5 -13 9
-21 9 -48 0 -434 174 -578 261 -36 21 -70 39 -75 39 -6 0 -11 5 -11 10 0 6 -6
10 -14 10 -8 0 -16 3 -18 8 -1 4 -16 14 -31 23 -41 23 -188 126 -260 182 -166
129 -199 158 -362 322 -145 145 -174 177 -260 285 -33 41 -62 77 -66 80 -13
12 -162 234 -214 320 -89 146 -269 517 -289 595 -2 6 -6 17 -9 25 -13 35 -49
143 -51 154 -1 6 -4 16 -8 21 -3 6 -9 26 -14 45 -10 45 -8 38 -24 90 -7 25
-14 50 -14 55 -1 6 -5 24 -9 40 -4 17 -9 39 -11 50 -3 11 -11 54 -20 95 -8 41
-18 93 -21 115 -3 22 -8 51 -10 65 -18 108 -31 294 -36 535 -1 23 11 244 15
285 20 203 25 232 72 470 8 38 44 181 55 215 20 67 73 222 82 245 6 14 11 30
12 36 13 61 214 478 240 496 6 4 7 8 2 8 -7 0 17 40 115 188 26 41 48 78 48
83 0 5 4 9 10 9 5 0 16 12 24 28 12 22 93 129 136 180 7 7 35 41 63 75 69 84
303 316 407 403 47 40 126 101 175 138 50 36 95 69 100 73 46 35 235 153 245
153 6 0 10 4 10 10 0 5 3 9 8 8 4 -1 27 10 52 24 59 35 335 168 349 168 6 0
19 5 29 10 20 12 199 81 222 85 8 2 51 15 94 29 43 14 88 28 100 31 12 2 32 7
46 10 14 4 32 8 40 9 9 1 20 5 25 8 6 4 31 10 55 13 25 4 54 9 65 11 203 41
189 40 181 12z"/>
<path d="M3697 2804 c-2 -3 -56 -5 -120 -5 l-115 -1 0 -528 c-1 -402 2 -529
11 -532 7 -3 93 -4 192 -3 186 2 272 10 340 29 6 2 24 6 40 11 84 22 177 89
228 162 28 41 64 141 75 206 3 23 6 87 5 142 -3 254 -102 409 -303 473 -95 30
-113 33 -224 38 -56 2 -106 6 -113 9 -6 2 -13 1 -16 -1z m166 -128 c243 -30
343 -156 340 -431 -1 -110 -34 -209 -95 -286 -20 -25 -119 -77 -163 -85 -51
-10 -54 -11 -57 -14 -2 -1 -65 -3 -140 -4 -89 -1 -139 2 -141 8 -2 10 -1 802
2 816 1 7 190 3 254 -4z"/>
<path d="M4587 2793 c-3 -7 -2 -1039 2 -1054 0 -3 31 -5 69 -4 l67 1 5 252 5
253 252 -253 252 -252 90 -1 c50 0 91 2 91 5 0 3 -125 131 -279 284 l-278 279
52 49 c29 27 77 72 107 101 31 29 106 99 168 157 147 138 190 179 190 184 0 2
-39 4 -87 5 l-88 1 -71 -67 c-39 -38 -133 -126 -209 -198 -76 -71 -151 -143
-167 -159 l-28 -29 0 227 0 226 -69 0 c-39 0 -72 -3 -74 -7z"/>
</g>
</svg>
