<?xml version="1.0" encoding="UTF-8"?><svg id="Layer_1" xmlns="http://www.w3.org/2000/svg" viewBox="0 0 184.58 224.46"><defs><style>.cls-1{stroke-width:.75px;}.cls-1,.cls-2{fill:none;stroke:#010101;stroke-miterlimit:10;}.cls-3,.cls-4{fill:#333;}.cls-5{fill:#818181;}.cls-6{fill:#676767;}.cls-4{font-family:CooperBlack, 'Cooper Black';font-size:36.55px;}.cls-2{stroke-width:2px;}</style></defs><path class="cls-3" d="m92.29,41.88c49.79,0,90.29,40.5,90.29,90.29s-40.5,90.29-90.29,90.29S2,181.96,2,132.17,42.5,41.88,92.29,41.88m0-2C41.32,39.88,0,81.2,0,132.17s41.32,92.29,92.29,92.29,92.29-41.32,92.29-92.29-41.32-92.29-92.29-92.29h0Z"/><polygon class="cls-5" points="92.75 0 92.75 118.44 142.84 157.68 92.75 0"/><polygon class="cls-6" points="42.67 157.96 92.75 .28 92.75 118.72 42.67 157.96"/><text class="cls-4" transform="translate(63.07 180.97)"><tspan x="0" y="0">DK</tspan></text><polygon class="cls-2" points="44.13 157.34 92.93 3.71 141.74 157.07 92.93 119.11 44.13 157.34"/><line class="cls-1" x1="92.93" y1="3.71" x2="92.93" y2="119.11"/></svg>